<svg width="102" height="20" viewBox="0 0 102 20" fill="none" xmlns="http://www.w3.org/2000/svg">
<mask id="mask0_1858_5613" style="mask-type:luminance" maskUnits="userSpaceOnUse" x="0" y="0" width="102" height="20">
<path d="M101.607 0H0V20H101.607V0Z" fill="white"/>
</mask>
<g mask="url(#mask0_1858_5613)">
<path d="M10.1818 10.8514C10.3654 10.5368 10.3644 10.1474 10.1789 9.83383L7.1551 4.72585L4.6285 0.489087C4.23832 -0.16518 3.29032 -0.162495 2.90386 0.493968L0.733935 4.17985C0.548974 4.49403 0.548975 4.88389 0.733936 5.19807L3.46316 9.83399C3.64769 10.1474 3.64815 10.5363 3.46438 10.8502L1.31493 14.5214C0.923396 15.19 1.40535 16.0314 2.17991 16.0314H6.57994C6.93615 16.0314 7.2656 15.8423 7.44538 15.5346L10.1818 10.8514Z" fill="#4469FC"/>
<path d="M16.4785 15.9148V2.15234H19.3864V13.5158H25.2831V15.9148H16.4785Z" fill="white"/>
<path d="M29.3402 16.1091C28.682 16.1091 28.0956 15.9949 27.5806 15.7664C27.0658 15.5334 26.6583 15.1907 26.3583 14.7382C26.0629 14.2812 25.915 13.7123 25.915 13.0314C25.915 12.4579 26.0203 11.9763 26.2308 11.5866C26.4411 11.1968 26.7277 10.8832 27.0903 10.6458C27.453 10.4083 27.8649 10.2292 28.326 10.1082C28.7917 9.98726 29.2798 9.9021 29.7902 9.85285C30.3902 9.7901 30.8737 9.73193 31.2408 9.6781C31.608 9.61993 31.8744 9.53476 32.04 9.42276C32.2057 9.31076 32.2886 9.14501 32.2886 8.92551V8.88518C32.2886 8.4596 32.1543 8.13031 31.8855 7.89735C31.6214 7.66439 31.2453 7.54791 30.7573 7.54791C30.2424 7.54791 29.8326 7.66215 29.5283 7.89063C29.2238 8.11463 29.0223 8.39685 28.9238 8.73735L26.2777 8.52226C26.412 7.89511 26.6762 7.35303 27.0703 6.89607C27.4642 6.43464 27.9723 6.08072 28.5948 5.83432C29.2215 5.58345 29.9469 5.45801 30.7707 5.45801C31.3437 5.45801 31.8923 5.52521 32.4161 5.65961C32.9444 5.79401 33.4123 6.00232 33.8198 6.28456C34.2316 6.5668 34.5563 6.92967 34.7936 7.37319C35.0309 7.81223 35.1495 8.3386 35.1495 8.95235V15.9142H32.4363V14.4829H32.3556C32.19 14.8054 31.9684 15.0899 31.6908 15.3363C31.4132 15.5782 31.0797 15.7687 30.6901 15.9075C30.3005 16.0419 29.8506 16.1091 29.3402 16.1091ZM30.1595 14.1334C30.5804 14.1334 30.952 14.0506 31.2744 13.8848C31.5968 13.7146 31.8497 13.4861 32.0333 13.1994C32.2168 12.9127 32.3087 12.5878 32.3087 12.225V11.1297C32.2191 11.1878 32.096 11.2417 31.9393 11.2909C31.7871 11.3357 31.6147 11.3782 31.4222 11.4186C31.2296 11.4544 31.0371 11.488 30.8445 11.5194C30.652 11.5462 30.4774 11.5709 30.3207 11.5933C29.9849 11.6426 29.6917 11.721 29.441 11.8285C29.1902 11.936 28.9954 12.0816 28.8567 12.2653C28.7178 12.4445 28.6484 12.6685 28.6484 12.9373C28.6484 13.3271 28.7895 13.625 29.0716 13.8311C29.3581 14.0327 29.7207 14.1334 30.1595 14.1334Z" fill="white"/>
<path d="M39.4743 9.94693V15.9142H36.6133V5.59241H39.34V7.41351H39.4608C39.6892 6.8132 40.0719 6.33832 40.6093 5.98888C41.1466 5.63496 41.798 5.45801 42.5637 5.45801C43.2799 5.45801 43.9046 5.61481 44.4374 5.92841C44.9701 6.242 45.3843 6.69 45.6798 7.27239C45.9754 7.85031 46.1232 8.54026 46.1232 9.3421V15.9142H43.2621V9.85285C43.2666 9.22118 43.1054 8.72835 42.7785 8.37443C42.4517 8.01606 42.0017 7.83687 41.4286 7.83687C41.0436 7.83687 40.7034 7.91975 40.4077 8.08551C40.1167 8.25126 39.8883 8.49318 39.7227 8.81126C39.5615 9.12485 39.4787 9.50343 39.4743 9.94693Z" fill="white"/>
<path d="M52.268 20C51.3412 20 50.5464 19.8722 49.8838 19.6169C49.2256 19.3661 48.7018 19.0233 48.3123 18.5887C47.9228 18.1542 47.6697 17.6659 47.5534 17.1238L50.1995 16.7677C50.28 16.9737 50.4076 17.1664 50.5823 17.3456C50.7569 17.5247 50.9875 17.6682 51.274 17.7757C51.565 17.8877 51.9187 17.9437 52.3352 17.9437C52.9575 17.9437 53.4701 17.7913 53.8731 17.4867C54.2805 17.1866 54.4843 16.6826 54.4843 15.9747V14.0864H54.3634C54.2381 14.3732 54.05 14.6442 53.7992 14.8995C53.5486 15.1549 53.2262 15.3632 52.8321 15.5245C52.4381 15.6857 51.968 15.7664 51.4218 15.7664C50.6473 15.7664 49.942 15.5872 49.3063 15.2288C48.6749 14.8659 48.1712 14.3127 47.7952 13.569C47.4236 12.8208 47.2378 11.8756 47.2378 10.7332C47.2378 9.56393 47.428 8.58726 47.8086 7.80327C48.1891 7.01927 48.695 6.4324 49.3264 6.04264C49.9622 5.65289 50.6584 5.45801 51.415 5.45801C51.9926 5.45801 52.4762 5.55656 52.8657 5.75368C53.2552 5.94632 53.5687 6.18824 53.8059 6.47944C54.0478 6.76616 54.2336 7.0484 54.3634 7.32616H54.4708V5.59241H57.3117V16.015C57.3117 16.8931 57.0968 17.6278 56.6669 18.2192C56.2371 18.8105 55.6416 19.2541 54.8805 19.5497C54.1238 19.8499 53.253 20 52.268 20ZM52.3284 13.616C52.7896 13.616 53.1792 13.5017 53.4971 13.2733C53.8194 13.0403 54.0657 12.7088 54.2358 12.2787C54.4105 11.8442 54.4977 11.3245 54.4977 10.7197C54.4977 10.1149 54.4126 9.59076 54.2426 9.14726C54.0724 8.69926 53.8261 8.3521 53.5037 8.10566C53.1813 7.85927 52.7896 7.73607 52.3284 7.73607C51.8584 7.73607 51.4621 7.86375 51.1397 8.11911C50.8173 8.37001 50.5733 8.71943 50.4076 9.16743C50.242 9.61543 50.1592 10.1328 50.1592 10.7197C50.1592 11.3156 50.242 11.8307 50.4076 12.2653C50.5778 12.6954 50.8218 13.0292 51.1397 13.2666C51.4621 13.4995 51.8584 13.616 52.3284 13.616Z" fill="white"/>
<path d="M62.6337 16.0828C61.8502 16.0828 61.1405 15.8812 60.5047 15.478C59.8735 15.0703 59.372 14.4722 59.0004 13.6838C58.6332 12.8908 58.4497 11.9186 58.4497 10.7673C58.4497 9.58465 58.64 8.60123 59.0205 7.81726C59.4011 7.02879 59.907 6.43968 60.5384 6.04992C61.1742 5.65568 61.8703 5.45856 62.627 5.45856C63.2046 5.45856 63.6859 5.55712 64.071 5.75424C64.4605 5.94688 64.7739 6.18879 65.0112 6.47999C65.253 6.76671 65.4366 7.04895 65.5619 7.32671H65.6492V2.15234H68.5035V15.9148H65.6827V14.2617H65.5619C65.4276 14.5484 65.2373 14.8329 64.991 15.1151C64.7493 15.3929 64.4337 15.6236 64.044 15.8073C63.659 15.991 63.1889 16.0828 62.6337 16.0828ZM63.5403 13.8047C64.0015 13.8047 64.3911 13.6793 64.709 13.4284C65.0313 13.1731 65.2776 12.8169 65.4477 12.36C65.6224 11.903 65.7096 11.3676 65.7096 10.7539C65.7096 10.1401 65.6246 9.60699 65.4545 9.15457C65.2843 8.70207 65.038 8.35265 64.7156 8.10622C64.3933 7.85983 64.0015 7.73663 63.5403 7.73663C63.0703 7.73663 62.674 7.8643 62.3516 8.11966C62.0293 8.37499 61.7853 8.7289 61.6196 9.1814C61.454 9.6339 61.3711 10.1581 61.3711 10.7539C61.3711 11.3542 61.454 11.8851 61.6196 12.3465C61.7897 12.8035 62.0337 13.1619 62.3516 13.4217C62.674 13.6771 63.0703 13.8047 63.5403 13.8047Z" fill="white"/>
<path d="M74.7589 16.1158C73.7158 16.1158 72.8135 15.8941 72.0523 15.4506C71.2957 15.0026 70.7114 14.3798 70.2995 13.5824C69.8875 12.7805 69.6816 11.8509 69.6816 10.7937C69.6816 9.72743 69.8875 8.7956 70.2995 7.99815C70.7114 7.19623 71.2957 6.57352 72.0523 6.13C72.8135 5.68201 73.7158 5.45801 74.7589 5.45801C75.8021 5.45801 76.702 5.68201 77.4587 6.13C78.2199 6.57352 78.8063 7.19623 79.2183 7.99815C79.6303 8.7956 79.8361 9.72743 79.8361 10.7937C79.8361 11.8509 79.6303 12.7805 79.2183 13.5824C78.8063 14.3798 78.2199 15.0026 77.4587 15.4506C76.702 15.8941 75.8021 16.1158 74.7589 16.1158ZM74.7723 13.8982C75.2469 13.8982 75.6431 13.7638 75.961 13.4951C76.2789 13.2217 76.5185 12.8499 76.6796 12.3796C76.8454 11.9092 76.9282 11.3737 76.9282 10.7735C76.9282 10.1732 76.8454 9.63785 76.6796 9.16743C76.5185 8.69701 76.2789 8.32519 75.961 8.05191C75.6431 7.77863 75.2469 7.64199 74.7723 7.64199C74.2933 7.64199 73.8902 7.77863 73.5634 8.05191C73.241 8.32519 72.9971 8.69701 72.8314 9.16743C72.6703 9.63785 72.5896 10.1732 72.5896 10.7735C72.5896 11.3737 72.6703 11.9092 72.8314 12.3796C72.9971 12.8499 73.241 13.2217 73.5634 13.4951C73.8902 13.7638 74.2933 13.8982 74.7723 13.8982Z" fill="white"/>
<path d="M85.6025 16.1158C84.5456 16.1158 83.6371 15.8918 82.8755 15.4438C82.1189 14.9913 81.5368 14.3642 81.1293 13.5622C80.7263 12.7603 80.5249 11.8375 80.5249 10.7937C80.5249 9.73635 80.7286 8.80901 81.136 8.01159C81.5479 7.20967 82.1322 6.58472 82.8889 6.13672C83.6454 5.68425 84.5456 5.45801 85.5884 5.45801C86.4887 5.45801 87.2765 5.62152 87.9528 5.94856C88.6291 6.2756 89.1638 6.7348 89.5577 7.32616C89.9516 7.91751 90.169 8.61193 90.209 9.40935H87.5098C87.4331 8.89418 87.2315 8.47976 86.9051 8.16615C86.5828 7.84807 86.1597 7.68903 85.6359 7.68903C85.1927 7.68903 84.8055 7.80999 84.4741 8.05191C84.1468 8.28935 83.8919 8.63651 83.7086 9.09351C83.5246 9.55043 83.433 10.1037 83.433 10.7533C83.433 11.4118 83.5221 11.9718 83.7011 12.4333C83.8852 12.8947 84.1426 13.2464 84.4741 13.4883C84.8055 13.7302 85.1927 13.8512 85.6359 13.8512C85.9623 13.8512 86.2555 13.784 86.5154 13.6496C86.7793 13.5152 86.9967 13.3203 87.1666 13.065C87.3415 12.8052 87.4556 12.4937 87.5098 12.1309H90.209C90.1648 12.9194 89.9499 13.6137 89.5644 14.2141C89.1838 14.8099 88.6582 15.2758 87.9861 15.6118C87.3149 15.9478 86.5204 16.1158 85.6025 16.1158Z" fill="white"/>
<path d="M93.8755 12.9446L93.8822 9.51065H94.2986L97.6033 5.59296H100.887L96.4481 10.7807H95.7693L93.8755 12.9446ZM91.2837 15.9148V2.15234H94.1445V15.9148H91.2837ZM97.7307 15.9148L94.695 11.4191L96.6023 9.39648L101.082 15.9148H97.7307Z" fill="white"/>
</g>
</svg>
