<?xml version="1.0" encoding="utf-8"?>
<!-- Generator: Adobe Illustrator 26.0.3, SVG Export Plug-In . SVG Version: 6.00 Build 0)  -->
<svg version="1.1" id="Layer_1" xmlns="http://www.w3.org/2000/svg" xmlns:xlink="http://www.w3.org/1999/xlink" x="0px" y="0px"
	 viewBox="0 0 123 25" style="enable-background:new 0 0 123 25;" xml:space="preserve">
<style type="text/css">
	.st0{clip-path:url(#SVGID_00000032608712425108156960000007230257583222413488_);}
	.st1{fill:url(#SVGID_00000074401713974705286960000013832224694137924010_);}
	.st2{fill:#F1F3FD;fill-opacity:0.8;stroke:url(#SVGID_00000093895359649019214830000002552562306365128598_);stroke-width:0.7;}
	.st3{fill:none;stroke:#FFFFFF;stroke-opacity:0.1;}
	.st4{fill:#FFFFFF;fill-opacity:0.9;}
</style>
<g>
	<defs>
		<rect id="SVGID_1_" y="0.9" width="122.3" height="24"/>
	</defs>
	<clipPath id="SVGID_00000114755582814509299710000006193309201119281797_">
		<use xlink:href="#SVGID_1_"  style="overflow:visible;"/>
	</clipPath>
	<g style="clip-path:url(#SVGID_00000114755582814509299710000006193309201119281797_);">
		
			<linearGradient id="SVGID_00000011732776133061968640000016862005448628974733_" gradientUnits="userSpaceOnUse" x1="22.8894" y1="1.6054" x2="2.2956" y2="23.028" gradientTransform="matrix(1 0 0 -1 0 26)">
			<stop  offset="0" style="stop-color:#4469FC"/>
			<stop  offset="1" style="stop-color:#4469FC;stop-opacity:0.7"/>
		</linearGradient>
		<path style="fill:url(#SVGID_00000011732776133061968640000016862005448628974733_);" d="M19.9,0.9H3.7c-2,0-3.7,1.7-3.7,3.7v16.4
			c0,2.1,1.6,3.7,3.7,3.7h16.2c2,0,3.7-1.7,3.7-3.7V4.7C23.6,2.6,21.9,0.9,19.9,0.9z"/>
		
			<linearGradient id="SVGID_00000097495698824970504660000000050895792785381044_" gradientUnits="userSpaceOnUse" x1="12.618" y1="4.3584" x2="10.1646" y2="22.0979" gradientTransform="matrix(1 0 0 -1 0 26)">
			<stop  offset="0" style="stop-color:#FFFFFF;stop-opacity:0"/>
			<stop  offset="1" style="stop-color:#FFFFFF"/>
		</linearGradient>
		
			<path style="fill:#F1F3FD;fill-opacity:0.8;stroke:url(#SVGID_00000097495698824970504660000000050895792785381044_);stroke-width:0.7;" d="
			M6.9,8.8l0.3,0.2c-0.1,0.2-0.1,0.3,0,0.5l3,5.1l0,0c0.3,0.5,0.3,1.2,0,1.8c0,0,0,0,0,0l-2.3,4.1l-0.3-0.2l0.3,0.2
			c-0.2,0.3,0.1,0.7,0.4,0.7H13c0.2,0,0.3-0.1,0.4-0.2l3-5.2c0.1-0.2,0.1-0.3,0-0.5L6.9,8.8z M6.9,8.8l0.3,0.2l2.4-4.1l0,0
			c0.2-0.3,0.6-0.3,0.8,0v0l2.7,4.7l0,0l0,0l0,0l3.3,5.7L6.9,8.8z"/>
		<path class="st3" d="M19.9,1.3H3.7c-1.8,0-3.3,1.5-3.3,3.4v16.4c0,1.9,1.5,3.4,3.3,3.4h16.2c1.8,0,3.3-1.5,3.3-3.4V4.7
			C23.2,2.8,21.7,1.3,19.9,1.3z"/>
		<path class="st4" d="M32.5,20.3V5h2.7v13h6.6v2.3H32.5z"/>
		<path class="st4" d="M46.4,20.5c-0.7,0-1.4-0.1-1.9-0.4c-0.6-0.3-1-0.7-1.4-1.2c-0.3-0.5-0.5-1.1-0.5-1.9c0-0.6,0.1-1.2,0.4-1.6
			c0.2-0.4,0.6-0.8,1-1c0.4-0.3,0.9-0.4,1.4-0.6c0.5-0.1,1-0.2,1.6-0.3c0.7-0.1,1.2-0.1,1.6-0.2c0.4-0.1,0.7-0.1,0.9-0.3
			c0.2-0.1,0.3-0.3,0.3-0.6v0c0-0.6-0.2-1-0.5-1.3c-0.3-0.3-0.8-0.5-1.4-0.5c-0.7,0-1.2,0.1-1.6,0.4c-0.4,0.3-0.6,0.6-0.8,1
			l-2.5-0.4c0.2-0.7,0.5-1.3,1-1.8c0.5-0.5,1-0.8,1.7-1.1c0.7-0.2,1.4-0.4,2.2-0.4c0.5,0,1.1,0.1,1.6,0.2c0.5,0.1,1,0.3,1.5,0.6
			c0.4,0.3,0.8,0.7,1.1,1.2c0.3,0.5,0.4,1.1,0.4,1.9v7.7h-2.6v-1.6h-0.1c-0.2,0.3-0.4,0.6-0.7,0.9c-0.3,0.3-0.7,0.5-1.1,0.7
			C47.5,20.4,46.9,20.5,46.4,20.5z M47,18.5c0.5,0,1-0.1,1.4-0.3c0.4-0.2,0.7-0.5,0.9-0.9c0.2-0.4,0.3-0.8,0.3-1.2v-1.4
			c-0.1,0.1-0.2,0.1-0.4,0.2c-0.2,0.1-0.4,0.1-0.7,0.2c-0.2,0-0.5,0.1-0.7,0.1c-0.2,0-0.4,0.1-0.6,0.1c-0.4,0.1-0.8,0.1-1.1,0.3
			c-0.3,0.1-0.6,0.3-0.7,0.5c-0.2,0.2-0.3,0.5-0.3,0.9c0,0.5,0.2,0.9,0.5,1.1C46,18.4,46.5,18.5,47,18.5z"/>
		<path class="st4" d="M56.6,13.6v6.7H54V8.8h2.5v2h0.1c0.3-0.6,0.7-1.2,1.2-1.5c0.6-0.4,1.3-0.6,2.1-0.6c0.8,0,1.5,0.2,2,0.5
			c0.6,0.3,1,0.8,1.4,1.5c0.3,0.6,0.5,1.4,0.5,2.3v7.3h-2.7v-6.9c0-0.8-0.2-1.4-0.6-1.8c-0.4-0.4-0.9-0.7-1.6-0.7
			c-0.5,0-0.9,0.1-1.2,0.3c-0.4,0.2-0.6,0.5-0.8,0.9C56.7,12.5,56.6,13,56.6,13.6z"/>
		<path class="st4" d="M70.5,24.8c-1,0-1.8-0.1-2.5-0.4c-0.7-0.3-1.2-0.6-1.7-1c-0.4-0.4-0.7-0.9-0.9-1.5l2.4-0.6
			c0.1,0.2,0.3,0.4,0.5,0.7c0.2,0.2,0.5,0.4,0.8,0.6c0.4,0.1,0.8,0.2,1.3,0.2c0.8,0,1.4-0.2,1.9-0.6c0.5-0.4,0.7-1,0.7-1.8v-2.2H73
			c-0.1,0.3-0.3,0.6-0.6,0.9c-0.3,0.3-0.6,0.5-1,0.7c-0.4,0.2-1,0.3-1.6,0.3c-0.9,0-1.7-0.2-2.4-0.6c-0.7-0.4-1.3-1-1.7-1.9
			c-0.4-0.8-0.6-1.9-0.6-3.1c0-1.3,0.2-2.3,0.6-3.2c0.4-0.9,1-1.5,1.7-2c0.7-0.5,1.5-0.7,2.4-0.7c0.7,0,1.2,0.1,1.6,0.3
			c0.4,0.2,0.8,0.5,1,0.8c0.3,0.3,0.4,0.6,0.6,0.9h0.1V8.8h2.6v11.7c0,1-0.2,1.8-0.7,2.4c-0.5,0.6-1.1,1.1-1.9,1.4
			C72.4,24.7,71.5,24.8,70.5,24.8z M70.5,18c0.6,0,1-0.1,1.4-0.4s0.7-0.7,0.9-1.2c0.2-0.5,0.3-1.2,0.3-1.9c0-0.7-0.1-1.4-0.3-1.9
			c-0.2-0.5-0.5-1-0.9-1.3c-0.4-0.3-0.9-0.5-1.4-0.5c-0.6,0-1.1,0.2-1.5,0.5c-0.4,0.3-0.7,0.7-0.9,1.3c-0.2,0.5-0.3,1.2-0.3,1.9
			c0,0.7,0.1,1.3,0.3,1.8c0.2,0.5,0.5,0.9,0.9,1.2C69.4,17.9,69.9,18,70.5,18z"/>
		<path class="st4" d="M81.6,20.5c-0.9,0-1.7-0.2-2.4-0.7c-0.7-0.5-1.3-1.1-1.7-2c-0.4-0.9-0.6-2-0.6-3.2c0-1.3,0.2-2.4,0.6-3.2
			c0.4-0.9,1-1.5,1.7-2c0.7-0.5,1.5-0.7,2.4-0.7c0.7,0,1.2,0.1,1.6,0.3c0.4,0.2,0.8,0.5,1,0.8c0.2,0.3,0.4,0.6,0.6,0.9H85V5h2.7
			v15.3H85v-1.8h-0.2c-0.1,0.3-0.3,0.6-0.6,0.9c-0.3,0.3-0.6,0.6-1,0.8C82.8,20.4,82.3,20.5,81.6,20.5z M82.4,18.3
			c0.6,0,1-0.2,1.4-0.5c0.4-0.3,0.7-0.8,0.9-1.3c0.2-0.6,0.3-1.2,0.3-2c0-0.7-0.1-1.4-0.3-1.9c-0.2-0.5-0.5-1-0.9-1.3
			c-0.4-0.3-0.9-0.5-1.4-0.5c-0.6,0-1.1,0.2-1.5,0.5c-0.4,0.3-0.7,0.7-0.9,1.3c-0.2,0.6-0.3,1.2-0.3,1.9c0,0.7,0.1,1.4,0.3,1.9
			c0.2,0.6,0.5,1,0.9,1.3C81.3,18.1,81.8,18.3,82.4,18.3z"/>
		<path class="st4" d="M94.4,20.5c-1.1,0-2.1-0.2-2.9-0.7c-0.8-0.5-1.4-1.2-1.9-2.1c-0.4-0.9-0.7-1.9-0.7-3.1s0.2-2.2,0.7-3.1
			c0.4-0.9,1.1-1.6,1.9-2.1c0.8-0.5,1.8-0.7,2.9-0.7c1.1,0,2.1,0.2,2.9,0.7c0.8,0.5,1.4,1.2,1.9,2.1c0.4,0.9,0.7,1.9,0.7,3.1
			s-0.2,2.2-0.7,3.1c-0.4,0.9-1.1,1.6-1.9,2.1C96.5,20.3,95.5,20.5,94.4,20.5z M94.4,18.4c0.6,0,1.1-0.2,1.5-0.5
			c0.4-0.3,0.7-0.8,0.9-1.4c0.2-0.6,0.3-1.2,0.3-1.9c0-0.7-0.1-1.3-0.3-1.9c-0.2-0.6-0.5-1-0.9-1.4c-0.4-0.3-0.9-0.5-1.5-0.5
			c-0.6,0-1.1,0.2-1.5,0.5c-0.4,0.3-0.7,0.8-0.9,1.4c-0.2,0.6-0.3,1.2-0.3,1.9c0,0.7,0.1,1.3,0.3,1.9c0.2,0.6,0.5,1,0.9,1.4
			C93.3,18.2,93.8,18.4,94.4,18.4z"/>
		<path class="st4" d="M106,20.5c-1.1,0-2.1-0.3-2.9-0.8c-0.8-0.5-1.4-1.2-1.9-2.1c-0.4-0.9-0.6-1.9-0.6-3.1c0-1.2,0.2-2.2,0.7-3.1
			c0.4-0.9,1.1-1.6,1.9-2.1c0.8-0.5,1.8-0.8,2.9-0.8c0.9,0,1.7,0.2,2.4,0.5c0.7,0.3,1.3,0.8,1.7,1.4c0.4,0.6,0.7,1.3,0.7,2.2h-2.5
			c-0.1-0.6-0.3-1-0.7-1.4c-0.4-0.4-0.9-0.6-1.5-0.6c-0.5,0-1,0.1-1.4,0.4c-0.4,0.3-0.7,0.7-1,1.3c-0.2,0.6-0.3,1.2-0.3,2
			c0,0.8,0.1,1.5,0.3,2c0.2,0.6,0.5,1,0.9,1.3c0.4,0.3,0.9,0.4,1.5,0.4c0.4,0,0.7-0.1,1.1-0.2c0.3-0.2,0.6-0.4,0.8-0.7
			c0.2-0.3,0.4-0.6,0.4-1.1h2.5c-0.1,0.8-0.3,1.5-0.7,2.2c-0.4,0.6-1,1.1-1.7,1.5C107.7,20.3,106.9,20.5,106,20.5z"/>
		<path class="st4" d="M114.4,16.7l0-3.3h0.4l4.1-4.6h3.1l-5,5.7h-0.6L114.4,16.7z M111.9,20.3V5h2.7v15.3H111.9z M119,20.3
			l-3.7-5.2l1.8-1.9l5.1,7.1H119z"/>
	</g>
</g>
</svg>
